<svg width="199" height="60" viewBox="0 0 199 60" fill="none" xmlns="http://www.w3.org/2000/svg">
<rect width="60" height="60" rx="5" fill="black" fill-opacity="0.8"/>
<path fill-rule="evenodd" clip-rule="evenodd" d="M30.3848 50.1255L12.4107 51.292L9.83984 11.6797L27.8139 10.5131C36.3306 9.96041 41.619 13.2968 41.9917 19.0405C42.281 23.4969 40.9613 26.9141 34.8104 27.91C41.032 28.0034 48.2425 28.7785 48.7632 36.8C49.3577 45.9604 39.8918 49.5084 30.3848 50.1255ZM18.633 40.7311C18.1522 39.8607 17.6193 38.5958 17.4938 37.8879L17.2284 36.6588L19.1298 36.5354C20.9519 36.4171 21.0065 36.4401 21.0476 37.0739C21.1522 38.6848 22.798 40.7525 24.5429 41.4879C26.0434 42.1331 28.3656 41.9558 29.8194 41.0659C31.1711 40.2356 32.3715 38.3014 32.5362 36.7526L32.6244 35.6595L34.3673 35.5464L36.1367 35.4316L36.0869 36.7077C36.0254 38.6211 34.9879 41.0222 33.5752 42.5459C29.3106 47.1188 21.7727 46.2025 18.633 40.7311Z" fill="white"/>
<path d="M71.25 46.4561L76.2889 16.875H83.5359L81.6538 28.069H81.802C82.1972 27.395 82.7208 26.745 83.3729 26.1191C84.0349 25.4932 84.8302 24.9828 85.759 24.588C86.6877 24.1836 87.7498 23.9814 88.9453 23.9814C90.5261 23.9814 91.9341 24.3858 93.1691 25.1947C94.4041 26.0035 95.3032 27.2505 95.8663 28.9357C96.4295 30.6208 96.4888 32.7681 96.0442 35.3776C95.6193 37.8909 94.8536 39.9949 93.7471 41.6896C92.6405 43.3844 91.3215 44.6555 89.7901 45.5028C88.2685 46.3502 86.6679 46.7739 84.9883 46.7739C83.8422 46.7739 82.8789 46.5909 82.0984 46.225C81.3277 45.8591 80.7102 45.3776 80.2459 44.7806C79.7914 44.1836 79.4752 43.5433 79.2974 42.8596H79.0158L78.423 46.4561H71.25ZM80.2459 35.3632C80.0483 36.5572 80.0384 37.5972 80.2162 38.4831C80.4039 39.369 80.7646 40.0575 81.2981 40.5486C81.8415 41.03 82.5578 41.2708 83.447 41.2708C84.3362 41.2708 85.1316 41.03 85.8331 40.5486C86.5346 40.0575 87.1224 39.369 87.5967 38.4831C88.0709 37.5972 88.4068 36.5572 88.6045 35.3632C88.8021 34.1692 88.8119 33.134 88.6341 32.2578C88.4661 31.3815 88.1154 30.7026 87.5819 30.2212C87.0483 29.7397 86.332 29.499 85.4329 29.499C84.5437 29.499 83.7434 29.7349 83.0321 30.2067C82.3306 30.6786 81.7378 31.3526 81.2536 32.2289C80.7794 33.1051 80.4435 34.1499 80.2459 35.3632Z" fill="black" fill-opacity="0.8"/>
<path d="M108.526 46.875C106.145 46.875 104.169 46.4176 102.598 45.5028C101.037 44.5784 99.9407 43.264 99.3083 41.5596C98.676 39.8456 98.5624 37.809 98.9675 35.4499C99.3627 33.1581 100.168 31.1552 101.383 29.4412C102.608 27.7176 104.15 26.3791 106.007 25.4258C107.865 24.4629 109.934 23.9814 112.217 23.9814C113.837 23.9814 115.275 24.2269 116.529 24.718C117.784 25.2091 118.822 25.941 119.642 26.9135C120.462 27.8764 121.02 29.0608 121.316 30.4667C121.613 31.8726 121.603 33.4855 121.287 35.3054L121.005 37.0676H101.235L101.902 32.9655H114.944C115.062 32.2144 114.998 31.5452 114.751 30.9578C114.504 30.3704 114.104 29.913 113.551 29.5856C113.007 29.2486 112.34 29.0801 111.55 29.0801C110.75 29.0801 109.999 29.2631 109.297 29.629C108.606 29.9853 108.018 30.4667 107.534 31.0734C107.049 31.68 106.733 32.3637 106.585 33.1244L105.8 37.3276C105.641 38.2616 105.686 39.0608 105.933 39.7253C106.18 40.3897 106.605 40.9 107.208 41.2563C107.81 41.603 108.586 41.7763 109.534 41.7763C110.167 41.7763 110.759 41.6944 111.313 41.5308C111.866 41.3574 112.36 41.1022 112.795 40.7652C113.239 40.4186 113.6 39.9997 113.877 39.5086L120.486 39.6964C119.953 41.1504 119.128 42.4166 118.011 43.4951C116.895 44.564 115.532 45.3969 113.921 45.9939C112.32 46.5813 110.522 46.875 108.526 46.875Z" fill="black" fill-opacity="0.8"/>
<path d="M133.658 46.875C131.257 46.875 129.276 46.3935 127.715 45.4306C126.164 44.4677 125.077 43.1292 124.455 41.4152C123.832 39.6916 123.718 37.6983 124.114 35.4354C124.489 33.1629 125.284 31.1697 126.5 29.4556C127.715 27.732 129.266 26.3887 131.153 25.4258C133.04 24.4629 135.174 23.9814 137.556 23.9814C139.66 23.9814 141.429 24.3521 142.861 25.0936C144.304 25.835 145.346 26.8846 145.988 28.2424C146.64 29.5905 146.833 31.1745 146.566 32.9944H139.793C139.853 31.8678 139.616 30.9819 139.082 30.3367C138.549 29.6819 137.773 29.3545 136.755 29.3545C135.896 29.3545 135.105 29.5856 134.384 30.0478C133.673 30.5004 133.065 31.1745 132.561 32.07C132.067 32.9559 131.711 34.0536 131.494 35.3632C131.277 36.6728 131.262 37.7801 131.45 38.6853C131.647 39.5808 132.018 40.2597 132.561 40.7219C133.114 41.1745 133.816 41.4008 134.666 41.4008C135.337 41.4008 135.96 41.2611 136.533 40.9819C137.106 40.7026 137.605 40.2934 138.03 39.7542C138.455 39.2053 138.786 38.5409 139.023 37.7609H145.781C145.395 39.6001 144.649 41.2034 143.543 42.5707C142.446 43.9284 141.058 44.9877 139.378 45.7484C137.699 46.4995 135.792 46.875 133.658 46.875Z" fill="black" fill-opacity="0.8"/>
<path d="M157.448 33.8033L155.284 46.4561H148.037L153.076 16.875H160.086L158.159 28.3435H158.411C159.142 26.9761 160.16 25.9073 161.464 25.1369C162.768 24.3666 164.28 23.9814 165.999 23.9814C167.58 23.9814 168.904 24.3281 169.971 25.0214C171.038 25.705 171.794 26.6728 172.239 27.9246C172.683 29.1764 172.762 30.64 172.476 32.3155L170.045 46.4561H162.798L164.991 33.7022C165.189 32.4696 165.026 31.5067 164.502 30.8134C163.979 30.1201 163.139 29.7734 161.983 29.7734C161.222 29.7734 160.521 29.9371 159.878 30.2645C159.246 30.5823 158.718 31.0397 158.293 31.6367C157.868 32.2337 157.586 32.9559 157.448 33.8033Z" fill="black" fill-opacity="0.8"/>
<path d="M185.136 46.875C182.735 46.875 180.754 46.3935 179.193 45.4306C177.642 44.4677 176.55 43.1244 175.918 41.4008C175.285 39.6771 175.162 37.6742 175.547 35.3921C175.932 33.1196 176.728 31.1263 177.933 29.4123C179.139 27.6983 180.68 26.3646 182.557 25.4114C184.434 24.4581 186.563 23.9814 188.945 23.9814C191.336 23.9814 193.307 24.4629 194.858 25.4258C196.419 26.3887 197.516 27.732 198.148 29.4556C198.79 31.1793 198.919 33.187 198.533 35.4788C198.148 37.7513 197.348 39.7445 196.132 41.4585C194.917 43.1629 193.376 44.4918 191.508 45.4451C189.641 46.3983 187.517 46.875 185.136 46.875ZM185.951 41.5452C186.84 41.5452 187.635 41.2852 188.337 40.7652C189.048 40.2452 189.646 39.5182 190.13 38.5842C190.614 37.6502 190.96 36.5669 191.168 35.3343C191.375 34.121 191.395 33.057 191.227 32.1422C191.069 31.2178 190.733 30.5004 190.219 29.9901C189.705 29.4701 189.009 29.2101 188.129 29.2101C187.24 29.2101 186.44 29.4749 185.729 30.0045C185.017 30.5245 184.419 31.2515 183.935 32.1855C183.461 33.11 183.12 34.1932 182.913 35.4354C182.705 36.6487 182.681 37.7127 182.839 38.6275C182.997 39.5423 183.338 40.2597 183.861 40.7797C184.385 41.29 185.081 41.5452 185.951 41.5452Z" fill="black" fill-opacity="0.8"/>
</svg>
