<svg width="106" height="32" viewBox="0 0 106 32" fill="none" xmlns="http://www.w3.org/2000/svg">
<rect width="32" height="32" rx="5" fill="black" fill-opacity="0.8"/>
<path fill-rule="evenodd" clip-rule="evenodd" d="M16.2056 26.7346L6.61943 27.3567L5.24829 6.23016L14.8345 5.60801C19.3767 5.31321 22.1972 7.0926 22.396 10.156C22.5502 12.5327 21.8464 14.3552 18.5659 14.8863C21.8841 14.9362 25.7297 15.3496 26.0074 19.6277C26.3245 24.5132 21.276 26.4055 16.2056 26.7346ZM9.93799 21.7243C9.68156 21.26 9.39734 20.5854 9.3304 20.2079L9.18885 19.5523L10.2029 19.4865C11.1747 19.4234 11.2038 19.4357 11.2258 19.7737C11.2815 20.6329 12.1593 21.7357 13.0899 22.1279C13.8902 22.472 15.1287 22.3775 15.9041 21.9028C16.625 21.46 17.2652 20.4284 17.353 19.6024L17.4 19.0194L18.3296 18.9591L19.2733 18.8978L19.2467 19.5785C19.2139 20.5989 18.6606 21.8795 17.9071 22.6922C15.6327 25.1311 11.6125 24.6424 9.93799 21.7243Z" fill="white"/>
<path d="M38 24.7766L40.6874 9H44.5525L43.5487 14.9701H43.6277C43.8385 14.6107 44.1178 14.264 44.4656 13.9302C44.8186 13.5964 45.2428 13.3242 45.7381 13.1136C46.2334 12.8979 46.7999 12.7901 47.4375 12.7901C48.2806 12.7901 49.0315 13.0058 49.6902 13.4372C50.3488 13.8686 50.8284 14.5336 51.1287 15.4324C51.4291 16.3311 51.4607 17.4763 51.2236 18.8681C50.997 20.2085 50.5886 21.3306 49.9984 22.2345C49.4083 23.1383 48.7048 23.8162 47.888 24.2682C47.0765 24.7201 46.2229 24.9461 45.3271 24.9461C44.7159 24.9461 44.2021 24.8485 43.7858 24.6533C43.3748 24.4582 43.0455 24.2014 42.7978 23.883C42.5554 23.5646 42.3868 23.2231 42.2919 22.8584H42.1418L41.8256 24.7766H38ZM42.7978 18.8604C42.6924 19.4972 42.6871 20.0518 42.782 20.5243C42.8821 20.9968 43.0744 21.364 43.359 21.6259C43.6488 21.8827 44.0308 22.0111 44.5051 22.0111C44.9793 22.0111 45.4035 21.8827 45.7776 21.6259C46.1518 21.364 46.4653 20.9968 46.7182 20.5243C46.9712 20.0518 47.1503 19.4972 47.2557 18.8604C47.3611 18.2236 47.3664 17.6715 47.2715 17.2041C47.1819 16.7368 46.9949 16.3747 46.7103 16.118C46.4258 15.8612 46.0437 15.7328 45.5642 15.7328C45.09 15.7328 44.6632 15.8586 44.2838 16.1103C43.9096 16.3619 43.5935 16.7214 43.3353 17.1887C43.0823 17.6561 42.9032 18.2133 42.7978 18.8604Z" fill="black" fill-opacity="0.8"/>
<path d="M57.8808 25C56.6109 25 55.557 24.7561 54.7192 24.2682C53.8866 23.7752 53.3017 23.0741 52.9644 22.1651C52.6272 21.251 52.5666 20.1648 52.7827 18.9066C52.9934 17.6843 53.4229 16.6161 54.071 15.702C54.7244 14.7827 55.5465 14.0688 56.5371 13.5604C57.5278 13.0469 58.6317 12.7901 59.8489 12.7901C60.7131 12.7901 61.4798 12.921 62.149 13.183C62.8182 13.4449 63.3715 13.8352 63.8089 14.3539C64.2462 14.8674 64.544 15.4991 64.702 16.2489C64.8601 16.9987 64.8549 17.8589 64.6862 18.8296L64.5361 19.7694H53.992L54.3477 17.5816H61.3033C61.3665 17.181 61.3323 16.8241 61.2005 16.5108C61.0688 16.1976 60.8554 15.9536 60.5603 15.779C60.2705 15.5993 59.9148 15.5094 59.4932 15.5094C59.0664 15.5094 58.6659 15.607 58.2918 15.8021C57.923 15.9921 57.6094 16.2489 57.3512 16.5725C57.093 16.896 56.9244 17.2606 56.8454 17.6663L56.4264 19.908C56.3421 20.4062 56.3658 20.8325 56.4976 21.1868C56.6293 21.5412 56.8559 21.8134 57.1773 22.0034C57.4988 22.1883 57.9124 22.2807 58.4183 22.2807C58.7555 22.2807 59.0717 22.237 59.3668 22.1497C59.6619 22.0573 59.9253 21.9212 60.1572 21.7415C60.3943 21.5566 60.5866 21.3332 60.7342 21.0713L64.2594 21.1714C63.9749 21.9469 63.5349 22.6222 62.9394 23.1974C62.344 23.7675 61.6168 24.2117 60.7579 24.5301C59.9043 24.8434 58.9452 25 57.8808 25Z" fill="black" fill-opacity="0.8"/>
<path d="M71.2842 25C70.0037 25 68.9472 24.7432 68.1146 24.2297C67.2873 23.7161 66.7077 23.0022 66.3757 22.0881C66.0438 21.1688 65.9832 20.1058 66.1939 18.8989C66.3942 17.6869 66.8184 16.6238 67.4665 15.7097C68.1146 14.7904 68.9419 14.074 69.9484 13.5604C70.9548 13.0469 72.093 12.7901 73.363 12.7901C74.4854 12.7901 75.4286 12.9878 76.1926 13.3832C76.962 13.7787 77.5179 14.3385 77.8604 15.0626C78.2082 15.7816 78.3109 16.6264 78.1687 17.597H74.5565C74.5881 16.9961 74.4616 16.5237 74.1771 16.1796C73.8925 15.8304 73.4789 15.6558 72.9361 15.6558C72.4777 15.6558 72.0562 15.779 71.6715 16.0255C71.2921 16.2669 70.968 16.6264 70.6993 17.104C70.4358 17.5765 70.2461 18.1619 70.1302 18.8604C70.0143 19.5588 70.0064 20.1494 70.1065 20.6322C70.2119 21.1098 70.4095 21.4718 70.6993 21.7183C70.9944 21.9597 71.3685 22.0804 71.8217 22.0804C72.18 22.0804 72.512 22.0059 72.8176 21.857C73.1232 21.7081 73.3893 21.4898 73.6159 21.2022C73.8425 20.9095 74.019 20.5551 74.1455 20.1391H77.7497C77.5442 21.12 77.1464 21.9751 76.5562 22.7044C75.9713 23.4285 75.231 23.9934 74.3352 24.3991C73.4394 24.7997 72.4224 25 71.2842 25Z" fill="black" fill-opacity="0.8"/>
<path d="M83.9722 18.0284L82.8183 24.7766H78.9531L81.6405 9H85.3792L84.3516 15.1165H84.486C84.876 14.3873 85.4187 13.8172 86.1143 13.4064C86.8098 12.9955 87.616 12.7901 88.5329 12.7901C89.376 12.7901 90.0821 12.975 90.6512 13.3447C91.2203 13.7094 91.6234 14.2255 91.8605 14.8931C92.0977 15.5607 92.1398 16.3414 91.987 17.235L90.6907 24.7766H86.8256L87.9954 17.9745C88.1008 17.3171 88.0139 16.8036 87.7346 16.4338C87.4553 16.064 87.0074 15.8792 86.3909 15.8792C85.9852 15.8792 85.611 15.9665 85.2685 16.1411C84.9313 16.3105 84.6494 16.5545 84.4228 16.8729C84.1962 17.1913 84.046 17.5765 83.9722 18.0284Z" fill="black" fill-opacity="0.8"/>
<path d="M98.7391 25C97.4586 25 96.4021 24.7432 95.5695 24.2297C94.7423 23.7161 94.16 22.9997 93.8227 22.0804C93.4855 21.1611 93.4196 20.0929 93.6251 18.8758C93.8306 17.6638 94.2548 16.6007 94.8977 15.6866C95.5406 14.7724 96.3626 14.0611 97.3638 13.5527C98.365 13.0443 99.5005 12.7901 100.77 12.7901C102.046 12.7901 103.097 13.0469 103.924 13.5604C104.757 14.074 105.342 14.7904 105.679 15.7097C106.021 16.629 106.09 17.6997 105.884 18.922C105.679 20.134 105.252 21.1971 104.604 22.1112C103.956 23.0202 103.134 23.7289 102.138 24.2374C101.142 24.7458 100.009 25 98.7391 25ZM99.1738 22.1574C99.6481 22.1574 100.072 22.0188 100.446 21.7415C100.826 21.4641 101.145 21.0764 101.403 20.5782C101.661 20.0801 101.845 19.5023 101.956 18.845C102.067 18.1979 102.077 17.6304 101.988 17.1425C101.903 16.6495 101.724 16.2669 101.45 15.9947C101.176 15.7174 100.805 15.5787 100.336 15.5787C99.8615 15.5787 99.4347 15.7199 99.0553 16.0024C98.6759 16.2797 98.3571 16.6675 98.0989 17.1656C97.8459 17.6586 97.6641 18.2364 97.5535 18.8989C97.4428 19.546 97.4297 20.1135 97.514 20.6013C97.5983 21.0892 97.7801 21.4718 98.0593 21.7492C98.3386 22.0213 98.7101 22.1574 99.1738 22.1574Z" fill="black" fill-opacity="0.8"/>
</svg>
