<svg width="20" height="20" viewBox="0 0 20 20" fill="none" xmlns="http://www.w3.org/2000/svg">
<path d="M13.125 10.9375C13.125 12.6634 11.7259 14.0625 10 14.0625C8.27408 14.0625 6.875 12.6634 6.875 10.9375C6.875 9.21158 8.27408 7.8125 10 7.8125C11.7259 7.8125 13.125 9.21158 13.125 10.9375Z" fill="#1C1C1C"/>
<path d="M7.1875 6.5625C7.1875 7.94327 6.06827 9.0625 4.6875 9.0625C3.30673 9.0625 2.1875 7.94327 2.1875 6.5625C2.1875 5.18173 3.30673 4.0625 4.6875 4.0625C6.06827 4.0625 7.1875 5.18173 7.1875 6.5625Z" fill="black" fill-opacity="0.1"/>
<path d="M17.8125 6.5625C17.8125 7.94327 16.6933 9.0625 15.3125 9.0625C13.9317 9.0625 12.8125 7.94327 12.8125 6.5625C12.8125 5.18173 13.9317 4.0625 15.3125 4.0625C16.6933 4.0625 17.8125 5.18173 17.8125 6.5625Z" fill="black" fill-opacity="0.1"/>
<path fill-rule="evenodd" clip-rule="evenodd" d="M10 7.1875C10 7.1875 11.5533 7.1875 12.6516 8.28585C12.6516 8.28585 13.75 9.3842 13.75 10.9375C13.75 10.9375 13.75 12.4908 12.6516 13.5892C12.6516 13.5892 11.5533 14.6875 10 14.6875C10 14.6875 8.4467 14.6875 7.34835 13.5892C7.34835 13.5892 6.25 12.4908 6.25 10.9375C6.25 10.9375 6.25 9.3842 7.34835 8.28585C7.34835 8.28585 8.4467 7.1875 10 7.1875ZM10 8.4375C10 8.4375 8.96447 8.4375 8.23223 9.16973C8.23223 9.16973 7.5 9.90197 7.5 10.9375C7.5 10.9375 7.5 11.973 8.23223 12.7053C8.23223 12.7053 8.96447 13.4375 10 13.4375C10 13.4375 11.0355 13.4375 11.7678 12.7053C11.7678 12.7053 12.5 11.973 12.5 10.9375C12.5 10.9375 12.5 9.90197 11.7678 9.16973C11.7678 9.16973 11.0355 8.4375 10 8.4375Z" fill="#1C1C1C"/>
<path d="M18.5627 11.3114L18.5629 11.3117C18.6622 11.4444 18.8101 11.5324 18.9741 11.5561C19.0037 11.5604 19.0336 11.5625 19.0635 11.5625L19.0646 11.5625C19.1991 11.5623 19.33 11.5187 19.4377 11.4381C19.5956 11.3201 19.6885 11.1346 19.6885 10.9375L19.6885 10.9304C19.687 10.7979 19.6434 10.6694 19.5642 10.5633L19.5636 10.5626C18.8124 9.55781 17.6902 8.99671 17.6902 8.99671C16.5676 8.43541 15.3125 8.43751 15.3125 8.43751L15.3135 8.43751C15.6587 8.43751 15.9385 8.71733 15.9385 9.06251C15.9385 9.40714 15.6596 9.68674 15.3149 9.68751L18.5627 11.3114Z" fill="#1C1C1C"/>
<path d="M2.86987 10.1147C3.72754 9.6859 4.68645 9.68751 4.68645 9.68751L4.68733 9.68751H4.6875C4.69716 9.68751 4.70683 9.68728 4.71648 9.68684C4.87169 9.67963 5.01865 9.61487 5.1287 9.50519C5.24611 9.38817 5.31222 9.22931 5.3125 9.06355L5.3125 9.06269V9.06251C5.3125 9.02471 5.30907 8.98699 5.30226 8.94981C5.24792 8.65343 4.98986 8.43801 4.68855 8.43751L4.6875 8.43751C3.43298 8.43564 2.31085 8.99671 2.31085 8.99671C1.18865 9.55781 0.437406 10.5626 0.437406 10.5626L0.436954 10.5632C0.35613 10.6714 0.3125 10.8026 0.3125 10.9375L0.312534 10.9441C0.312825 10.9718 0.314962 10.9995 0.31893 11.0269C0.342647 11.191 0.430562 11.3389 0.563337 11.4381C0.671371 11.5189 0.802626 11.5625 0.9375 11.5625C0.945856 11.5625 0.954211 11.5623 0.962561 11.562C1.1507 11.5545 1.32541 11.4625 1.43813 11.3117C2.01219 10.5436 2.86987 10.1147 2.86987 10.1147Z" fill="#1C1C1C"/>
<path d="M12.3217 15.3549C13.3867 16.02 13.9378 17.1481 13.9378 17.1481L13.9382 17.1488L13.9384 17.1492C14.0432 17.3638 14.2611 17.5 14.5 17.5L14.5171 17.4997C14.6063 17.4973 14.694 17.4757 14.7742 17.4366C14.9889 17.3318 15.125 17.1138 15.125 16.875L15.1248 16.8578C15.1223 16.7686 15.1008 16.6809 15.0616 16.6007L15.0614 16.6002C14.353 15.1498 12.9839 14.2947 12.9839 14.2947C11.6145 13.4395 10 13.4395 10 13.4395C8.38551 13.4395 7.01614 14.2947 7.01614 14.2947C5.64701 15.1498 4.93862 16.6002 4.93862 16.6002L4.9384 16.6007C4.89668 16.6861 4.875 16.7799 4.875 16.875L4.87505 16.8831C4.87592 16.9495 4.88736 17.0154 4.90896 17.0782C4.96285 17.2349 5.07681 17.3638 5.22576 17.4366C5.31117 17.4783 5.40496 17.5 5.5 17.5L5.51435 17.4998C5.74797 17.4944 5.95909 17.3592 6.06162 17.1492C6.61282 16.0204 7.6783 15.3549 7.6783 15.3549C8.74379 14.6895 10 14.6895 10 14.6895C11.2562 14.6895 12.3217 15.3549 12.3217 15.3549Z" fill="#1C1C1C"/>
<path d="M6.05134 5.27921C6.42441 5.6763 6.52657 6.21149 6.52657 6.21149C6.55765 6.37431 6.65213 6.51811 6.78924 6.61127C6.89285 6.68166 7.01522 6.7193 7.14048 6.7193L7.14453 6.71929C7.1825 6.71904 7.22037 6.71533 7.25767 6.70821C7.55234 6.65197 7.76548 6.39429 7.76548 6.0943L7.76547 6.09078C7.76526 6.05263 7.76155 6.01458 7.7544 5.97711C7.58413 5.08513 6.96235 4.42331 6.96235 4.42331C6.34057 3.76149 5.46093 3.53596 5.46093 3.53596C4.5813 3.31043 3.71779 3.59144 3.71779 3.59144C2.85427 3.87245 2.27584 4.57247 2.27584 4.57247C1.6974 5.27249 1.5842 6.17349 1.5842 6.17349C1.471 7.07449 1.85829 7.89585 1.85829 7.89585C2.24558 8.7172 3.01275 9.20309 3.01275 9.20309C3.77964 9.6888 4.68736 9.68805 4.68736 9.68805L4.68799 9.68805C4.85375 9.68788 5.01266 9.62187 5.12975 9.50454C5.24668 9.38737 5.31236 9.22859 5.31236 9.06305L5.31236 9.06242C5.31201 8.71748 5.03229 8.43805 4.68736 8.43805L4.68672 8.43805C4.14187 8.4386 3.68158 8.14707 3.68158 8.14707C3.22128 7.85554 2.9889 7.36273 2.9889 7.36273C2.75653 6.86992 2.82445 6.32931 2.82445 6.32931C2.89237 5.78871 3.23943 5.3687 3.23943 5.3687C3.58649 4.94869 4.1046 4.78008 4.1046 4.78008C4.62271 4.61148 5.15049 4.7468 5.15049 4.7468C5.67827 4.88211 6.05134 5.27921 6.05134 5.27921Z" fill="#1C1C1C"/>
<path d="M16.3183 8.14707C15.858 8.4386 15.3131 8.43805 15.3131 8.43805L15.3125 8.43805C15.3027 8.43805 15.2929 8.43828 15.2831 8.43874L14.6882 9.09244C14.6955 9.24764 14.7604 9.39456 14.8701 9.50454C14.9872 9.62187 15.1461 9.68788 15.3119 9.68805L15.3125 9.68805C16.2202 9.6888 16.9871 9.20309 16.9871 9.20309C17.7543 8.7172 18.1416 7.89585 18.1416 7.89585C18.5289 7.07449 18.4157 6.17349 18.4157 6.17349C18.3025 5.27249 17.724 4.57247 17.724 4.57247C17.1456 3.87245 16.2821 3.59144 16.2821 3.59144C15.4186 3.31043 14.5389 3.53596 14.5389 3.53596C13.6593 3.76149 13.0375 4.42331 13.0375 4.42331C12.4157 5.08513 12.2455 5.97711 12.2455 5.97711C12.2381 6.01574 12.2344 6.05498 12.2344 6.0943C12.2344 6.11308 12.2352 6.13185 12.2369 6.15056C12.262 6.42837 12.4682 6.65591 12.7422 6.70821C12.7808 6.71559 12.8201 6.7193 12.8594 6.7193C12.8782 6.7193 12.8969 6.71845 12.9156 6.71676C13.1934 6.69165 13.421 6.48548 13.4733 6.21149C13.5755 5.6763 13.9485 5.27921 13.9485 5.27921C14.3216 4.88211 14.8494 4.7468 14.8494 4.7468C15.3771 4.61148 15.8953 4.78008 15.8953 4.78008C16.4134 4.94869 16.7604 5.3687 16.7604 5.3687C17.1075 5.78871 17.1754 6.32931 17.1754 6.32931C17.2433 6.86992 17.011 7.36273 17.011 7.36273C16.7786 7.85554 16.3183 8.14707 16.3183 8.14707Z" fill="#1C1C1C"/>
</svg>
