<svg width="120" height="31" viewBox="0 0 120 31" fill="none" xmlns="http://www.w3.org/2000/svg">
<path fill-rule="evenodd" clip-rule="evenodd" d="M10.5968 4.67462C11.8877 4.67462 12.9341 3.62817 12.9341 2.33731C12.9341 1.04645 11.8877 0 10.5968 0C9.30595 0 8.2595 1.04645 8.2595 2.33731C8.2595 3.62817 9.30595 4.67462 10.5968 4.67462ZM3.91118 11.4109C5.59562 11.4109 6.96113 10.0454 6.96113 8.36098C6.96113 6.67653 5.59562 5.31102 3.91118 5.31102C2.22673 5.31102 0.861217 6.67653 0.861217 8.36098C0.861217 10.0454 2.22673 11.4109 3.91118 11.4109ZM7.25368 17.3542C6.57919 18.4615 5.36997 19.2073 3.98472 19.2329C5.63519 19.2719 6.96113 20.6221 6.96113 22.282C6.96113 23.9664 5.59562 25.3319 3.91118 25.3319C2.22673 25.3319 0.861217 23.9664 0.861217 22.282C0.861217 20.6221 2.18712 19.272 3.83754 19.2329C1.71145 19.1937 0 17.4579 0 15.3225C0 13.1624 1.75105 11.4114 3.91107 11.4114C5.32704 11.4114 6.56727 12.1639 7.25368 13.2907C7.94009 12.1639 9.18031 11.4114 10.5963 11.4114C12.0107 11.4114 13.2498 12.1622 13.9367 13.2871C14.6235 12.1622 15.8626 11.4114 17.2771 11.4114C19.4371 11.4114 21.1881 13.1624 21.1881 15.3225C21.1881 17.4579 19.4768 19.1936 17.3507 19.2329C19.0012 19.2719 20.3271 20.6221 20.3271 22.282C20.3271 23.9664 18.9616 25.3319 17.2772 25.3319C15.5927 25.3319 14.2272 23.9664 14.2272 22.282C14.2272 20.6221 15.5531 19.272 17.2035 19.2329C15.8197 19.2074 14.6116 18.4632 13.9367 17.3578C13.2618 18.4631 12.0537 19.2073 10.6699 19.2329C12.3204 19.2719 13.6463 20.6221 13.6463 22.282C13.6463 23.9664 12.2808 25.3319 10.5964 25.3319C8.91194 25.3319 7.54642 23.9664 7.54642 22.282C7.54642 20.6221 8.87232 19.272 10.5227 19.2329C9.13745 19.2073 7.92819 18.4615 7.25368 17.3542ZM20.3271 8.36098C20.3271 10.0454 18.9616 11.4109 17.2772 11.4109C15.5927 11.4109 14.2272 10.0454 14.2272 8.36098C14.2272 6.67653 15.5927 5.31102 17.2772 5.31102C18.9616 5.31102 20.3271 6.67653 20.3271 8.36098ZM13.6463 8.36098C13.6463 10.0454 12.2808 11.4109 10.5964 11.4109C8.91194 11.4109 7.54642 10.0454 7.54642 8.36098C7.54642 6.67653 8.91194 5.31102 10.5964 5.31102C12.2808 5.31102 13.6463 6.67653 13.6463 8.36098ZM10.5968 30.6438C11.8877 30.6438 12.9341 29.5973 12.9341 28.3065C12.9341 27.0156 11.8877 25.9692 10.5968 25.9692C9.30595 25.9692 8.2595 27.0156 8.2595 28.3065C8.2595 29.5973 9.30595 30.6438 10.5968 30.6438Z" fill="#1C1C1C"/>
<path d="M34.5203 15.2387C35.1871 15.5069 35.744 15.9915 36.1909 16.6928C36.6309 17.4009 36.8509 18.1847 36.8509 19.044C36.8509 20.1853 36.459 21.1271 35.6753 21.8696C34.8984 22.619 33.9153 22.9937 32.7259 22.9937H26.4766V8.42222H32.2C33.3137 8.42222 34.2453 8.77284 34.9946 9.47409C35.7371 10.1822 36.1084 11.076 36.1084 12.1553C36.1084 12.8084 35.9606 13.41 35.6649 13.96C35.3693 14.51 34.9878 14.9362 34.5203 15.2387ZM31.3956 11.3819H29.6425V14.125H31.3956C31.7806 14.125 32.1003 13.9909 32.3546 13.7228C32.6159 13.4478 32.7465 13.1247 32.7465 12.7534C32.7465 12.3616 32.6159 12.035 32.3546 11.7738C32.0934 11.5125 31.7737 11.3819 31.3956 11.3819ZM29.6425 20.034H31.9318C32.3856 20.034 32.7603 19.8862 33.0559 19.5906C33.3446 19.2881 33.489 18.9134 33.489 18.4665C33.489 18.0197 33.3378 17.645 33.0353 17.3425C32.7328 17.04 32.365 16.8887 31.9318 16.8887H29.6425V20.034Z" fill="#1C1C1C"/>
<path d="M39.9962 10.8456C39.453 10.8456 39.0027 10.6669 38.6452 10.3094C38.2809 9.94502 38.0987 9.49127 38.0987 8.94815C38.0987 8.41878 38.2809 7.97191 38.6452 7.60754C39.0027 7.25004 39.453 7.07129 39.9962 7.07129C40.553 7.07129 41.0137 7.25004 41.378 7.60754C41.7424 7.97191 41.9246 8.41878 41.9246 8.94815C41.9246 9.49127 41.7424 9.94502 41.378 10.3094C41.0137 10.6669 40.553 10.8456 39.9962 10.8456ZM41.543 22.9937H38.4596V12.2275H41.543V22.9937Z" fill="#1C1C1C"/>
<path d="M51.8451 13.3825V12.2275H54.9286V21.8284C54.9286 23.4577 54.4233 24.7743 53.4126 25.778C52.3883 26.768 51.0408 27.263 49.3702 27.263C47.9677 27.263 46.7852 26.9055 45.8227 26.1905C44.8671 25.4687 44.2346 24.489 43.9252 23.2515H47.0911C47.263 23.6159 47.5517 23.9046 47.9574 24.1177C48.363 24.3377 48.8339 24.4477 49.3702 24.4477C50.1195 24.4477 50.7211 24.2071 51.1748 23.7259C51.6217 23.2377 51.8451 22.5984 51.8451 21.8078V21.4778C50.9858 22.4196 49.8995 22.8906 48.5864 22.8906C47.0946 22.8906 45.8571 22.3681 44.8739 21.3231C43.884 20.2781 43.389 18.9753 43.389 17.4147C43.389 15.8678 43.884 14.5719 44.8739 13.5269C45.8502 12.4888 47.0877 11.9697 48.5864 11.9697C49.8927 11.9697 50.9789 12.4406 51.8451 13.3825ZM47.318 19.3121C47.813 19.8209 48.442 20.0753 49.2052 20.0753C49.9545 20.0753 50.5836 19.8209 51.0923 19.3121C51.5942 18.8103 51.8451 18.1778 51.8451 17.4147C51.8451 16.6515 51.5942 16.019 51.0923 15.5172C50.5836 15.0084 49.9545 14.7541 49.2052 14.7541C48.442 14.7541 47.813 15.0084 47.318 15.5172C46.8161 16.019 46.5652 16.6515 46.5652 17.4147C46.5652 18.1778 46.8161 18.8103 47.318 19.3121Z" fill="#1C1C1C"/>
<path d="M65.1894 13.3825V12.2275H68.2729V21.8284C68.2729 23.4577 67.7675 24.7743 66.7569 25.778C65.7326 26.768 64.3851 27.263 62.7145 27.263C61.312 27.263 60.1295 26.9055 59.167 26.1905C58.2114 25.4687 57.5789 24.489 57.2695 23.2515H60.4354C60.6073 23.6159 60.896 23.9046 61.3017 24.1177C61.7073 24.3377 62.1782 24.4477 62.7145 24.4477C63.4638 24.4477 64.0654 24.2071 64.5191 23.7259C64.966 23.2377 65.1894 22.5984 65.1894 21.8078V21.4778C64.3301 22.4196 63.2438 22.8906 61.9307 22.8906C60.4388 22.8906 59.2014 22.3681 58.2182 21.3231C57.2282 20.2781 56.7332 18.9753 56.7332 17.4147C56.7332 15.8678 57.2282 14.5719 58.2182 13.5269C59.1945 12.4888 60.432 11.9697 61.9307 11.9697C63.237 11.9697 64.3232 12.4406 65.1894 13.3825ZM60.6623 19.3121C61.1573 19.8209 61.7863 20.0753 62.5495 20.0753C63.2988 20.0753 63.9279 19.8209 64.4366 19.3121C64.9385 18.8103 65.1894 18.1778 65.1894 17.4147C65.1894 16.6515 64.9385 16.019 64.4366 15.5172C63.9279 15.0084 63.2988 14.7541 62.5495 14.7541C61.7863 14.7541 61.1573 15.0084 60.6623 15.5172C60.1604 16.019 59.9095 16.6515 59.9095 17.4147C59.9095 18.1778 60.1604 18.8103 60.6623 19.3121Z" fill="#1C1C1C"/>
<path d="M78.8843 15.2387C79.5512 15.5069 80.1081 15.9915 80.555 16.6928C80.995 17.4009 81.215 18.1847 81.215 19.044C81.215 20.1853 80.8231 21.1271 80.0393 21.8696C79.2625 22.619 78.2794 22.9937 77.09 22.9937H70.8407V8.42222H76.5641C77.6778 8.42222 78.6094 8.77284 79.3587 9.47409C80.1012 10.1822 80.4725 11.076 80.4725 12.1553C80.4725 12.8084 80.3247 13.41 80.029 13.96C79.7334 14.51 79.3518 14.9362 78.8843 15.2387ZM75.7597 11.3819H74.0066V14.125H75.7597C76.1447 14.125 76.4644 13.9909 76.7187 13.7228C76.98 13.4478 77.1106 13.1247 77.1106 12.7534C77.1106 12.3616 76.98 12.035 76.7187 11.7738C76.4575 11.5125 76.1378 11.3819 75.7597 11.3819ZM74.0066 20.034H76.2959C76.7497 20.034 77.1244 19.8862 77.42 19.5906C77.7087 19.2881 77.8531 18.9134 77.8531 18.4665C77.8531 18.0197 77.7019 17.645 77.3994 17.3425C77.0969 17.04 76.7291 16.8887 76.2959 16.8887H74.0066V20.034Z" fill="#1C1C1C"/>
<path d="M90.8055 13.4031V12.2275H93.8889V22.9937H90.8055V21.8078C89.9324 22.7565 88.8462 23.2377 87.5468 23.2515C86.0687 23.2515 84.8346 22.7118 83.8446 21.6324C82.8478 20.5531 82.3493 19.209 82.3493 17.6003C82.3493 15.9984 82.8478 14.6578 83.8446 13.5784C84.8346 12.5059 86.0687 11.9697 87.5468 11.9697C88.8462 11.9697 89.9324 12.4475 90.8055 13.4031ZM88.1655 20.2712C88.9218 20.2712 89.5543 20.0168 90.063 19.5081C90.558 18.9993 90.8055 18.3634 90.8055 17.6003C90.8055 16.8372 90.5546 16.2047 90.0527 15.7028C89.5508 15.2009 88.9218 14.95 88.1655 14.95C87.4162 14.95 86.794 15.2009 86.299 15.7028C85.7971 16.2047 85.5462 16.8372 85.5462 17.6003C85.5462 18.3703 85.7971 19.0062 86.299 19.5081C86.794 20.0168 87.4162 20.2712 88.1655 20.2712Z" fill="#1C1C1C"/>
<path d="M102.685 11.9697C103.93 11.9697 104.927 12.3409 105.676 13.0834C106.432 13.8397 106.81 14.8331 106.81 16.0637V22.9937H103.727V17.1053C103.727 16.459 103.538 15.9365 103.16 15.5378C102.775 15.1459 102.273 14.95 101.654 14.95C100.987 14.95 100.451 15.1494 100.045 15.5481C99.6261 15.9469 99.4164 16.4797 99.4164 17.1465V22.9937H96.333V12.2275H99.4164V13.4031C100.241 12.4475 101.331 11.9697 102.685 11.9697Z" fill="#1C1C1C"/>
<path d="M116.917 13.3825V12.2275H120V21.8284C120 23.4577 119.495 24.7743 118.484 25.778C117.46 26.768 116.112 27.263 114.442 27.263C113.039 27.263 111.857 26.9055 110.894 26.1905C109.939 25.4687 109.306 24.489 108.997 23.2515H112.163C112.334 23.6159 112.623 23.9046 113.029 24.1177C113.434 24.3377 113.905 24.4477 114.442 24.4477C115.191 24.4477 115.793 24.2071 116.246 23.7259C116.693 23.2377 116.917 22.5984 116.917 21.8078V21.4778C116.057 22.4196 114.971 22.8906 113.658 22.8906C112.166 22.8906 110.929 22.3681 109.945 21.3231C108.955 20.2781 108.46 18.9753 108.46 17.4147C108.46 15.8678 108.955 14.5719 109.945 13.5269C110.922 12.4888 112.159 11.9697 113.658 11.9697C114.964 11.9697 116.05 12.4406 116.917 13.3825ZM112.389 19.3121C112.884 19.8209 113.514 20.0753 114.277 20.0753C115.026 20.0753 115.655 19.8209 116.164 19.3121C116.666 18.8103 116.917 18.1778 116.917 17.4147C116.917 16.6515 116.666 16.019 116.164 15.5172C115.655 15.0084 115.026 14.7541 114.277 14.7541C113.514 14.7541 112.884 15.0084 112.389 15.5172C111.888 16.019 111.637 16.6515 111.637 17.4147C111.637 18.1778 111.888 18.8103 112.389 19.3121Z" fill="#1C1C1C"/>
</svg>
