<svg width="20" height="20" viewBox="0 0 20 20" fill="none" xmlns="http://www.w3.org/2000/svg">
<path d="M9.44536 2.85154L2.05474 16.0468C1.99333 16.158 1.96724 16.2852 1.97994 16.4116C1.99263 16.5379 2.04351 16.6574 2.1258 16.7541C2.20809 16.8508 2.31789 16.9202 2.44057 16.9529C2.56325 16.9857 2.69301 16.9803 2.81255 16.9375L9.7813 14.4531C9.9166 14.3984 10.0679 14.3984 10.2032 14.4531L17.1719 16.9375C17.2915 16.9803 17.4212 16.9857 17.5439 16.9529C17.6666 16.9202 17.7764 16.8508 17.8587 16.7541C17.941 16.6574 17.9918 16.5379 18.0045 16.4116C18.0172 16.2852 17.9911 16.158 17.9297 16.0468L10.5391 2.85154C10.4851 2.75385 10.4058 2.67242 10.3097 2.61572C10.2135 2.55902 10.1039 2.52911 9.99224 2.52911C9.8806 2.52911 9.77099 2.55902 9.67482 2.61572C9.57864 2.67242 9.49941 2.75385 9.44536 2.85154Z" stroke="#1C1C1C" stroke-width="1.2" stroke-linecap="round" stroke-linejoin="round"/>
<path d="M9.99219 14.375V9.375" stroke="#1C1C1C" stroke-width="1.2" stroke-linecap="round" stroke-linejoin="round"/>
</svg>
