<svg width="16" height="16" viewBox="0 0 16 16" fill="none" xmlns="http://www.w3.org/2000/svg">
<path d="M12 7.49994L8.5 3.99994L10.1437 2.3562C10.1902 2.30896 10.2457 2.27142 10.3069 2.24585C10.368 2.22021 10.4337 2.20703 10.5 2.20703C10.5663 2.20703 10.632 2.22021 10.6931 2.24585C10.7543 2.27142 10.8098 2.30896 10.8563 2.3562L13.6437 5.14368C13.691 5.19025 13.7285 5.24567 13.7541 5.30682C13.7797 5.36798 13.7929 5.43365 13.7929 5.49994C13.7929 5.56622 13.7797 5.6319 13.7541 5.69305C13.7285 5.75421 13.691 5.80969 13.6437 5.8562L12 7.49994Z" fill="black" fill-opacity="0.1"/>
<path fill-rule="evenodd" clip-rule="evenodd" d="M13.9962 6.21081L6.35355 13.8535C6.25979 13.9473 6.13261 13.9999 6 13.9999H3C3 13.9999 2.58579 13.9999 2.29289 13.7071C2.29289 13.7071 2 13.4142 2 12.9999L2 10.2062C2 10.2062 1.99931 10.01 2.07451 9.82692C2.07451 9.82692 2.14971 9.64382 2.28932 9.50352L9.7902 2.00264C9.7902 2.00264 9.92847 1.86222 10.1138 1.78462C10.1138 1.78462 10.2991 1.70703 10.5 1.70703C10.5 1.70703 10.7009 1.70703 10.8862 1.78462C10.8862 1.78462 11.0715 1.86222 11.2125 2.00536L13.9973 4.79014C13.9973 4.79014 14.1377 4.92842 14.2153 5.11373C14.2153 5.11373 14.2929 5.29904 14.2929 5.49995C14.2929 5.49995 14.2929 5.70085 14.2153 5.88616C14.2153 5.88616 14.1385 6.06971 13.9973 6.20975L13.9962 6.21081ZM13.2929 5.49995L13.2902 5.49725L10.5 2.70703L10.4973 2.70975L3 10.207V12.9999H5.79289L13.2902 5.50264L13.2929 5.49995Z" fill="#FF4747"/>
<path d="M11.6462 7.85329L11.6464 7.85355C11.7402 7.94732 11.8674 8 12 8C12.1326 8 12.2598 7.94732 12.3536 7.85355C12.4473 7.75979 12.5 7.63261 12.5 7.5C12.5 7.36739 12.4473 7.24021 12.3536 7.14645L12.3533 7.14619L8.85361 3.64651C8.75979 3.55268 8.63261 3.5 8.5 3.5C8.36739 3.5 8.24021 3.55268 8.14645 3.64645C8.05268 3.74021 8 3.86739 8 4C8 4.13261 8.05268 4.25979 8.14645 4.35355L11.6462 7.85329Z" fill="#FF4747"/>
<path d="M13.5 13H6C5.72386 13 5.5 13.2239 5.5 13.5C5.5 13.7761 5.72386 14 6 14H13.5C13.7761 14 14 13.7761 14 13.5C14 13.2239 13.7761 13 13.5 13Z" fill="#FF4747"/>
</svg>
